HIERARCHY
ROOT Hips
{
  OFFSET 13.6774 106.653 -34.4427
  CHANNELS 6 Xposition Yposition Zposition Zrotation Xrotation Yrotation
  JOINT ToSpine
  {
    OFFSET -2.69724 7.43032 -0.144315
    CHANNELS 3 Zrotation Xrotation Yrotation
    JOINT Spine
    {
      OFFSET -0.0310711 10.7595 1.96963
      CHANNELS 3 Zrotation Xrotation Yrotation
      JOINT Spine1
      {
        OFFSET 19.9056 3.91189 0.764692
        CHANNELS 3 Zrotation Xrotation Yrotation
        JOINT Neck
        {
          OFFSET 25.9749 7.03908 -0.130764
          CHANNELS 3 Zrotation Xrotation Yrotation
          JOINT Head
          {
            OFFSET 9.52751 0.295786 -0.907742
            CHANNELS 3 Zrotation Xrotation Yrotation
            End Site
            {
              OFFSET 16.4037 0.713936 2.7358
            }
          }
        }
        JOINT LeftShoulder
        {
          OFFSET 17.7449 4.33886 11.7777
          CHANNELS 3 Zrotation Xrotation Yrotation
          JOINT LeftArm
          {
            OFFSET 0.911315 1.27913 9.80584
            CHANNELS 3 Zrotation Xrotation Yrotation
            JOINT LeftForeArm
            {
              OFFSET 28.6126 1.18197 -3.53199
              CHANNELS 3 Zrotation Xrotation Yrotation
              JOINT LeftHand
              {
                OFFSET 27.5088 0.0218783 0.327423
                CHANNELS 3 Zrotation Xrotation Yrotation
                End Site
                {
                  OFFSET 18.6038 -0.000155887 0.382096
                }
              }
            }
          }
        }
        JOINT RightShoulder
        {
          OFFSET 17.1009 2.89543 -12.2328
          CHANNELS 3 Zrotation Xrotation Yrotation
          JOINT RightArm
          {
            OFFSET 1.4228 0.178766 -10.211
            CHANNELS 3 Zrotation Xrotation Yrotation
            JOINT RightForeArm
            {
              OFFSET 28.733 1.87905 2.64907
              CHANNELS 3 Zrotation Xrotation Yrotation
              JOINT RightHand
              {
                OFFSET 27.4588 0.290562 -0.101845
                CHANNELS 3 Zrotation Xrotation Yrotation
                End Site
                {
                  OFFSET 17.8396 -0.255518 -0.000602873
                }
              }
            }
          }
        }
      }
    }
  }
  JOINT LeftUpLeg
  {
    OFFSET -5.61296 -2.22332 -10.2353
    CHANNELS 3 Zrotation Xrotation Yrotation
    JOINT LeftLeg
    {
      OFFSET 2.56703 -44.7417 -7.93097
      CHANNELS 3 Zrotation Xrotation Yrotation
      JOINT LeftFoot
      {
        OFFSET 3.16933 -46.5642 -3.96578
        CHANNELS 3 Zrotation Xrotation Yrotation
        JOINT LeftToeBase
        {
          OFFSET 0.346054 -6.02161 12.8035
          CHANNELS 3 Zrotation Xrotation Yrotation
          End Site
          {
            OFFSET 0.134235 -1.35082 5.13018
          }
        }
      }
    }
  }
  JOINT RightUpLeg
  {
    OFFSET -5.7928 -1.72406 10.6446
    CHANNELS 3 Zrotation Xrotation Yrotation
    JOINT RightLeg
    {
      OFFSET -2.57161 -44.7178 -7.85259
      CHANNELS 3 Zrotation Xrotation Yrotation
      JOINT RightFoot
      {
        OFFSET -3.10148 -46.5936 -4.03391
        CHANNELS 3 Zrotation Xrotation Yrotation
        JOINT RightToeBase
        {
          OFFSET -0.0828122 -6.13587 12.8035
          CHANNELS 3 Zrotation Xrotation Yrotation
          End Site
          {
            OFFSET -0.131328 -1.35082 5.13018
          }
        }
      }
    }
  }
}
MOTION
Frames: 7
Frame Time: 0.03333333333333333
0.0000 93.1000 0.0000 -68.0112 44.0538 168.9405 -71.0141 -0.1142 87.9959 141.9940 57.0115 -61.0432 12.4165 22.2962 -11.3431 -138.0862 12.9600 160.7512 -140.0161 50.2417 168.6132 1.0044 -0.6259 -6.9564 -115.0421 26.8839 -49.7000 -9.7963 58.6344 14.0414 4.8872 0.0120 4.6706 -0.5528 -0.2330 -5.2149 -87.7117 -13.7309 68.9220 -4.3954 -11.6490 4.9653 -2.2196 -0.1564 -4.0339 -12.7908 17.7464 91.7852 -2.8390 37.9673 -9.7204 -2.0869 7.7765 0.0163 0.9026 23.5824 9.0240 -21.0248 -18.1005 78.0573 140.9138 82.9359 -135.0352 -6.2428 1.9255 0.3344 -6.0920 41.3087 -9.2809 
0.0000 93.1000 0.0000 -68.9139 45.9778 167.8317 -71.0095 -0.1356 87.9939 142.9482 55.0437 -62.7952 14.5101 22.4841 -13.6134 -139.0660 12.7761 163.1060 -140.0405 49.8643 168.8190 1.2086 -0.3199 -8.8355 -117.3310 32.7886 -45.6850 -13.5424 63.2468 17.0483 5.2767 -0.0127 4.4774 -0.2907 1.3883 -3.0122 -83.1603 -19.5124 64.0134 -5.0894 -15.8146 5.2052 -2.6070 -0.3107 -4.1433 -16.8253 18.2412 94.9914 -3.8978 30.1682 -2.8529 -0.8776 7.3884 -0.3638 2.7298 21.9529 4.9870 -14.8184 -20.4693 74.0067 60.9103 84.9226 -52.0858 -6.2595 -0.6038 0.6810 -5.8667 33.8035 -5.8489 
0.0000 93.1000 0.0000 -70.0856 47.8048 169.1450 -71.0073 -0.5064 87.9957 142.9554 54.9973 -62.8896 17.1241 22.7172 -14.9396 -139.1209 12.2608 164.9459 -140.1692 49.1436 168.6988 1.2875 -0.2055 -10.9547 -114.7179 34.2986 -40.6844 -14.2313 58.5106 14.1438 5.8921 -0.4093 4.2568 -0.1930 2.1584 -2.0841 -82.9084 -23.7627 58.1122 -4.7246 -19.7782 4.8264 -2.7627 -0.0049 -3.9573 -20.0743 18.9553 95.9560 -5.1804 28.1586 0.8261 -1.4508 7.6595 -0.0096 3.3390 23.7131 4.6293 -11.7999 -19.9051 69.8299 14.9301 77.1596 -4.0839 -5.7810 -2.5075 0.4362 -7.5972 31.1954 -6.2320 
0.0000 93.1000 0.0000 -71.0143 49.8619 169.8955 -71.0016 -0.5696 87.9974 143.0652 55.8306 -61.1425 19.4165 21.9946 -14.7048 -141.2663 13.0948 166.9595 -142.1149 49.8017 170.7666 1.2258 -0.3882 -12.2226 -112.9539 35.9002 -35.7706 -12.9299 51.7134 10.8740 7.0076 -0.5089 4.0504 -0.3590 1.7025 -0.2547 -83.9842 -26.2186 50.8884 -4.8184 -19.5575 5.1390 -2.8433 -0.0373 -3.9706 -23.0580 19.0822 97.1330 -5.9937 31.0291 -2.9472 -3.0106 8.2688 0.4385 3.7291 24.9844 4.6013 -12.0714 -18.1478 63.9795 5.8222 64.3084 7.0006 -5.7975 -4.5998 0.4164 -8.5744 28.0662 -1.8353 
0.0000 93.1000 0.0000 -74.0669 50.1886 173.9459 -71.0016 -0.5092 87.9979 141.9554 56.9652 -59.3608 21.4169 20.5223 -13.6845 -139.2252 12.8629 167.9386 -140.2463 50.0880 170.7207 0.9838 -0.6600 -13.9747 -111.8369 35.2671 -34.7472 -11.6846 43.0761 10.0831 8.5355 -0.4255 4.0772 -0.5757 0.1022 1.3727 -85.8905 -27.8623 41.9967 -4.8923 -18.0113 4.7439 -2.7609 -0.2117 -3.9833 -25.9103 18.2487 100.7479 -3.0155 38.0718 -11.9141 -3.3935 10.0680 0.8125 3.7029 24.5917 3.2732 -15.8644 -16.0034 58.9908 2.8337 49.7550 11.0668 -3.2434 -2.8835 -0.0250 -11.1038 25.9142 6.9639 
0.0000 93.1000 0.0000 -77.9673 48.8503 178.0230 -70.9997 -0.3464 88.0035 139.9409 58.1166 -55.3031 23.3786 18.9304 -12.4722 -138.1562 12.0799 168.8998 -140.1003 48.8074 172.7911 1.4102 -0.2361 -17.4260 -114.0553 34.5791 -36.8128 -9.2031 35.0429 8.7393 10.2236 -0.1691 4.2536 -0.3123 -2.3449 5.6293 -91.7770 -27.9459 33.8436 -4.4422 -13.7964 4.1710 -2.5625 -0.3834 -3.5452 -30.4300 15.8526 97.9400 -4.2186 48.9076 -11.9241 -1.3404 11.5012 0.3885 -0.3957 20.5465 3.8668 -19.4849 -12.9863 59.1587 2.0203 40.0298 8.9796 -1.6201 2.1676 -0.4851 -15.3061 23.9511 12.1527 
0.0000 93.1000 0.0000 -83.1082 46.7118 -178.8824 -71.0097 -0.8780 87.9920 136.1160 58.2787 -52.3819 24.7593 17.1048 -12.5513 -138.2355 12.2167 170.0076 -139.4462 48.2295 170.9319 1.5013 0.7774 -25.6260 -112.9745 34.1611 -47.7726 -8.2279 30.3325 8.3803 12.7006 -1.0368 3.8539 -0.2081 -4.0051 12.7402 -99.3052 -28.0397 28.3514 -1.4045 -7.5907 0.9349 -1.8211 0.2683 -3.3446 -35.9583 11.1265 95.1764 -7.0133 62.1827 -12.0086 5.7475 13.1841 -0.3220 -6.4845 -25.9178 10.3505 -19.6525 -12.9625 61.0848 1.8378 40.0361 6.0979 0.6121 5.6230 -1.7773 -15.3673 22.0144 12.9594 
